# xmcd CD database file
#
# Track frame offsets:
#	150
#	13383
#	32554
#	47355
#	61872
#	78951
#	92921
#	104783
#	120127
#	133566
#	148820
#	165224
#	180400
#	196052
#
# Disc length: 2802 seconds
#
# Revision: 1
# Processed by: cddbd v1.5.2PL0 Copyright (c) Steve Scherf et al.
# Submitted via: CDex 1.51
#
DISCID=ab0af00e
DTITLE=Ataíde e Alexandre - Ao Vivo em Vitória
DYEAR=2009
DGENRE=Country
TTITLE0=Tá Nervoso... Vai Pescá!
TTITLE1=Laço Aberto
TTITLE2=Namorar
TTITLE3=Esse Amor não Valeu
TTITLE4=Agenda Rabiscada
TTITLE5=Deus me livre
TTITLE6=Estrada do Amor
TTITLE7=Tô /apaixonado
TTITLE8=Liguei para dizer que te amo
TTITLE9=Página de Amigos
TTITLE10=Doces Palavras
TTITLE11=Rosas e Versos
TTITLE12=Ciúme
TTITLE13=Por Você
EXTD=YEAR: 2009
EXTT0=
EXTT1=
EXTT2=
EXTT3=
EXTT4=
EXTT5=
EXTT6=
EXTT7=
EXTT8=
EXTT9=
EXTT10=
EXTT11=
EXTT12=
EXTT13=
PLAYORDER=
